<?xml version="1.0" encoding="utf-8"?>
<!-- Generator: Adobe Illustrator 16.0.3, SVG Export Plug-In . SVG Version: 6.00 Build 0)  -->
<!DOCTYPE svg PUBLIC "-//W3C//DTD SVG 1.1//EN" "http://www.w3.org/Graphics/SVG/1.1/DTD/svg11.dtd">
<svg version="1.1"
	 id="Layer_1" xmlns:dc="http://purl.org/dc/elements/1.1/" xmlns:cc="http://creativecommons.org/ns#" xmlns:rdf="http://www.w3.org/1999/02/22-rdf-syntax-ns#" xmlns:svg="http://www.w3.org/2000/svg" xmlns:sodipodi="http://sodipodi.sourceforge.net/DTD/sodipodi-0.dtd" xmlns:inkscape="http://www.inkscape.org/namespaces/inkscape"
	 xmlns="http://www.w3.org/2000/svg" xmlns:xlink="http://www.w3.org/1999/xlink" x="0px" y="0px" width="595.279px"
	 height="841.89px" viewBox="0 0 595.279 841.89" enable-background="new 0 0 595.279 841.89" xml:space="preserve">
<path fill="#FFFFFF" stroke="#000000" stroke-width="4" stroke-miterlimit="10" d="M303.699,167.951
	c43.611,0,94.594,7.515,138.217,25.857L289.748,309.33c-21.118-39.927-46.389-88.517-69.388-132.822
	C249.192,170.644,278.093,167.951,303.699,167.951L303.699,167.951z"/>
<path fill="#FF0000" stroke="#000000" stroke-width="4" stroke-miterlimit="10" d="M196.364,182.089l30.322,58.412l-48.553-52.831
	C184.127,185.681,190.244,183.751,196.364,182.089z"/>
<path fill="#0033CC" stroke="#000000" stroke-width="4" stroke-miterlimit="10" d="M154.136,196.599l109.755,119.614L62.612,370.161
	c-9.311-12.577-14.119-25.593-13.394-50.785C53.306,256.604,106.695,214.277,154.136,196.599z"/>
<path fill="#FFFFFF" stroke="#000000" stroke-width="4" stroke-miterlimit="10" d="M466.1,205.528
	c41.777,23.501,72.688,58.058,79.99,110.499c1.244,47.764-24.316,77.25-86.501,117.568L311.698,322.724L466.1,205.528z"/>
<path fill="#00FF00" stroke="#000000" stroke-width="4" stroke-miterlimit="10" d="M287.702,334.444l148.634,111.429
	c-45.61,21.65-96.552,31.625-132.637,31.625c-75.974,0-140.793-13.852-185.467-43.344c-17.693-11.682-32.378-25.749-43.716-42.601
	L287.702,334.444z"/>
<path fill="#FFFFFF" stroke="#000000" stroke-width="4" stroke-miterlimit="10" d="M537.347,396.39
	c-13.035,32.624-37.386,58.172-66.969,77.944v-19.346c0.313-0.186,0.619-0.375,0.931-0.561
	C496.557,439.404,519.671,420.149,537.347,396.39L537.347,396.39z"/>
<path fill="#00FF00" stroke="#000000" stroke-width="4" stroke-miterlimit="10" d="M60.379,412.202
	c12.28,16.385,27.374,30.331,44.832,41.856c50.571,33.387,119.69,47.25,198.488,47.25c40.219,0,93.74-10.42,142.867-33.855v21.02
	c-48.05,25.211-104.06,36.646-142.867,36.646c-75.974,0-140.793-13.852-185.467-43.344
	C91.823,464.341,72.175,441.693,60.379,412.202L60.379,412.202z"/>
</svg>
