<svg xmlns:dc="http://purl.org/dc/elements/1.1/" xmlns:cc="http://creativecommons.org/ns#" xmlns:rdf="http://www.w3.org/1999/02/22-rdf-syntax-ns#" xmlns:svg="http://www.w3.org/2000/svg" xmlns="http://www.w3.org/2000/svg" xmlns:sodipodi="http://sodipodi.sourceforge.net/DTD/sodipodi-0.dtd" xmlns:inkscape="http://www.inkscape.org/namespaces/inkscape" version="1.1" x="0px" y="0px" viewBox="0 0 100 125"><g transform="translate(0,-952.36218)"><path d="m 51.018011,972.36219 c 7.32619,-1e-5 15.8906,1.26236 23.21875,4.34375 l -25.5625,19.40624 c -3.54755,-6.7072 -7.7928,-14.8698 -11.65625,-22.31249 4.84321,-0.98515 9.69827,-1.4375 14,-1.4375 z m -18.03125,2.375 5.09375,9.81249 -8.15625,-8.87499 c 1.00698,-0.33407 2.03454,-0.65829 3.0625,-0.9375 z m -7.09375,2.4375 18.4375,20.09379 -33.8125,9.06252 c -1.5641003,-2.1128 -2.3718303,-4.2994 -2.2500003,-8.53132 0.68668,-10.5448 9.6554303,-17.6552 17.6250003,-20.62499 z m 52.40625,1.5 c 7.01812,3.94789 12.210871,9.75299 13.437501,18.56249 0.20896,8.02382 -4.085021,12.97712 -14.531251,19.75002 l -24.84375,-18.62502 z m -29.96875,21.65631 24.96875,18.7187 c -7.66199,3.6369 -16.21953,5.3125 -22.28125,5.3125 -12.76278,0 -23.65166,-2.3269 -31.15625,-7.2812 -2.97231,-1.9623 -5.43918,-4.3254 -7.34375,-7.1563 z m 41.937501,10.4062 c -2.189881,5.4803 -6.280431,9.7723 -11.250001,13.0937 l 0,-3.25 c 0.0524,-0.031 0.10392,-0.063 0.15625,-0.094 4.24146,-2.524 8.12429,-5.7585 11.093751,-9.7499 z m -80.125001,2.6563 c 2.06288,2.7523 4.59848,5.095 7.53125,7.0312 8.4954,5.6085 20.10652,7.9375 33.34375,7.9375 6.75628,0 15.74722,-1.7506 24,-5.6875 l 0,3.5312 c -8.07185,4.2352 -17.48085,6.1563 -24,6.1563 -12.76278,0 -23.65166,-2.3269 -31.15625,-7.2813 -4.43645,-2.9288 -7.73728,-6.7336 -9.71875,-11.6874 z" style="text-indent:0;text-transform:none;direction:ltr;block-progression:tb;baseline-shift:baseline;color:#000000;enable-background:accumulate;" fill="#000000" fill-opacity="1" stroke="none" marker="none" visibility="visible" display="inline" overflow="visible"/></g><text x="0" y="115" fill="#000000" font-size="5px" font-weight="bold" font-family="'Helvetica Neue', Helvetica, Arial-Unicode, Arial, Sans-serif">Created by sandra</text><text x="0" y="120" fill="#000000" font-size="5px" font-weight="bold" font-family="'Helvetica Neue', Helvetica, Arial-Unicode, Arial, Sans-serif">from the Noun Project</text></svg>